<svg xmlns="http://www.w3.org/2000/svg" xmlns:xlink="http://www.w3.org/1999/xlink" width="1920" zoomAndPan="magnify" viewBox="0 0 1440 809.999993" height="1080" preserveAspectRatio="xMidYMid meet" version="1.0"><defs><filter x="0%" y="0%" width="100%" height="100%" id="e4176b4022"><feColorMatrix values="0 0 0 0 1 0 0 0 0 1 0 0 0 0 1 0 0 0 1 0" color-interpolation-filters="sRGB"/></filter><mask id="75202b4471"><g filter="url(#e4176b4022)"><rect x="-144" width="1728" fill="#000000" y="-80.999999" height="971.999992" fill-opacity="0.5"/></g></mask><clipPath id="f1156733e7"><path d="M 78 20 L 185.660156 20 L 185.660156 171 L 78 171 Z M 78 20 " clip-rule="nonzero"/></clipPath><clipPath id="3cfa1a3045"><path d="M 48 0.367188 L 95 0.367188 L 95 74 L 48 74 Z M 48 0.367188 " clip-rule="nonzero"/></clipPath><clipPath id="01e45c4b95"><rect x="0" width="187" y="0" height="215"/></clipPath><mask id="5b8e13b5a6"><g filter="url(#e4176b4022)"><rect x="-144" width="1728" fill="#000000" y="-80.999999" height="971.999992" fill-opacity="0.5"/></g></mask><clipPath id="b574ea032b"><path d="M 121 70 L 172.566406 70 L 172.566406 88 L 121 88 Z M 121 70 " clip-rule="nonzero"/></clipPath><clipPath id="e3de920697"><path d="M 127 83 L 172.566406 83 L 172.566406 161 L 127 161 Z M 127 83 " clip-rule="nonzero"/></clipPath><clipPath id="9d0a919800"><path d="M 13 0.402344 L 64 0.402344 L 64 36 L 13 36 Z M 13 0.402344 " clip-rule="nonzero"/></clipPath><clipPath id="0a31d8c0a0"><path d="M 0.816406 0.402344 L 40 0.402344 L 40 87 L 0.816406 87 Z M 0.816406 0.402344 " clip-rule="nonzero"/></clipPath><clipPath id="a9b0234d05"><rect x="0" width="174" y="0" height="244"/></clipPath><mask id="17dbc2ba4f"><g filter="url(#e4176b4022)"><rect x="-144" width="1728" fill="#000000" y="-80.999999" height="971.999992" fill-opacity="0.5"/></g></mask><clipPath id="dfcc2938c8"><path d="M 0.273438 0.402344 L 576.273438 0.402344 L 576.273438 79 L 0.273438 79 Z M 0.273438 0.402344 " clip-rule="nonzero"/></clipPath><clipPath id="bf3300846d"><path d="M 0.273438 28 L 576.273438 28 L 576.273438 112 L 0.273438 112 Z M 0.273438 28 " clip-rule="nonzero"/></clipPath><clipPath id="24f0e5392f"><path d="M 0.273438 39 L 576.273438 39 L 576.273438 146 L 0.273438 146 Z M 0.273438 39 " clip-rule="nonzero"/></clipPath><clipPath id="c2d18b8349"><path d="M 0.273438 50 L 576.273438 50 L 576.273438 182 L 0.273438 182 Z M 0.273438 50 " clip-rule="nonzero"/></clipPath><clipPath id="276136ebb4"><path d="M 0.273438 60 L 576.273438 60 L 576.273438 218 L 0.273438 218 Z M 0.273438 60 " clip-rule="nonzero"/></clipPath><clipPath id="04d6294bee"><rect x="0" width="577" y="0" height="297"/></clipPath><mask id="69ad2dd053"><g filter="url(#e4176b4022)"><rect x="-144" width="1728" fill="#000000" y="-80.999999" height="971.999992" fill-opacity="0.5"/></g></mask><clipPath id="1feff6ef53"><path d="M 0.757812 2 L 345 2 L 345 237 L 0.757812 237 Z M 0.757812 2 " clip-rule="nonzero"/></clipPath><clipPath id="91549facad"><path d="M 17 215 L 346.507812 215 L 346.507812 315 L 17 315 Z M 17 215 " clip-rule="nonzero"/></clipPath><clipPath id="581cf407b4"><path d="M 35 202 L 346.507812 202 L 346.507812 282 L 35 282 Z M 35 202 " clip-rule="nonzero"/></clipPath><clipPath id="6add64ac47"><path d="M 42 220 L 346.507812 220 L 346.507812 299 L 42 299 Z M 42 220 " clip-rule="nonzero"/></clipPath><clipPath id="09113fe572"><rect x="0" width="347" y="0" height="325"/></clipPath><mask id="a831abc6db"><g filter="url(#e4176b4022)"><rect x="-144" width="1728" fill="#000000" y="-80.999999" height="971.999992" fill-opacity="0.5"/></g></mask><clipPath id="cc9730ca8f"><path d="M 1 1 L 581.863281 1 L 581.863281 537.953125 L 1 537.953125 Z M 1 1 " clip-rule="nonzero"/></clipPath><clipPath id="238c269880"><rect x="0" width="583" y="0" height="539"/></clipPath></defs><rect x="-144" width="1728" fill="#ffffff" y="-80.999999" height="971.999992" fill-opacity="1"/><rect x="-144" width="1728" fill="#ffffff" y="-80.999999" height="971.999992" fill-opacity="1"/><g mask="url(#75202b4471)"><g transform="matrix(1, 0, 0, 1, 18, 549)"><g clip-path="url(#01e45c4b95)"><g clip-path="url(#f1156733e7)"><path fill="#1c191a" d="M 115.777344 20.996094 L 105.09375 111.425781 C 103.949219 111.238281 102.777344 111.152344 101.558594 111.1875 C 99.164062 111.242188 96.71875 111.714844 94.304688 112.59375 C 84.015625 116.316406 77.300781 126.066406 79.015625 134.785156 C 80.3125 141.449219 86.355469 145.921875 94.039062 145.921875 C 94.203125 145.921875 94.367188 145.921875 94.523438 145.917969 C 96.921875 145.863281 99.367188 145.386719 101.792969 144.511719 C 110.082031 141.507812 116.324219 134.433594 117.339844 126.835938 L 125.769531 55.410156 L 168.9375 78.417969 L 162.089844 136.457031 C 160.976562 136.28125 159.800781 136.207031 158.660156 136.234375 C 156.269531 136.292969 153.828125 136.761719 151.40625 137.636719 C 141.132812 141.359375 134.414062 151.109375 136.117188 159.84375 C 137.425781 166.503906 143.460938 170.976562 151.148438 170.976562 C 151.308594 170.976562 151.46875 170.972656 151.628906 170.96875 C 154.027344 170.914062 156.472656 170.4375 158.898438 169.558594 C 167.175781 166.5625 173.375 159.519531 174.332031 152.003906 L 185.601562 56.59375 L 115.777344 20.996094 " fill-opacity="1" fill-rule="nonzero"/></g><path fill="#1c191a" d="M 54.898438 94.566406 C 53.4375 93.414062 51.855469 92.304688 50.050781 91.167969 C 49.238281 90.65625 48.417969 90.167969 47.617188 89.71875 C 46.679688 89.1875 45.828125 88.746094 45.039062 88.347656 C 44.046875 87.847656 43.074219 87.375 42.113281 86.910156 C 40.09375 85.933594 38.183594 85.015625 36.535156 84.011719 C 34.355469 82.703125 32.757812 81.273438 31.789062 79.746094 C 31.511719 79.3125 30.929688 78.105469 30.460938 77.136719 L 29.695312 75.570312 C 28.984375 74.117188 28.179688 72.472656 26.566406 70.316406 C 24.953125 68.171875 22.523438 66.941406 19.90625 66.941406 C 18.871094 66.941406 17.851562 67.132812 16.890625 67.503906 C 16.519531 67.644531 16.148438 67.816406 15.777344 68.015625 C 11.988281 70.085938 9.921875 74.605469 10.757812 79.019531 L 30.183594 164.679688 C 28.195312 164.90625 26.179688 165.410156 24.175781 166.175781 C 21.214844 167.316406 18.375 168.992188 15.734375 171.164062 C 4.53125 180.394531 0.390625 195.488281 6.320312 205.53125 C 9.457031 210.832031 14.992188 213.875 21.503906 213.875 C 24.300781 213.875 27.164062 213.320312 30.011719 212.226562 C 32.980469 211.089844 35.824219 209.40625 38.472656 207.230469 C 47.507812 199.773438 52.171875 188.222656 50.0625 178.445312 L 32.929688 102.910156 C 33.832031 103.238281 34.71875 103.539062 35.59375 103.84375 C 36.515625 104.164062 37.421875 104.476562 38.226562 104.769531 L 40.339844 105.59375 C 41.15625 105.941406 41.777344 106.21875 42.324219 106.484375 C 43.617188 107.097656 44.875 107.78125 46.082031 108.515625 C 51.328125 111.691406 55.054688 115.773438 57.183594 120.699219 C 59.488281 125.859375 60.054688 132.539062 58.785156 139.550781 C 58.3125 142.226562 59.839844 144.828125 62.335938 145.601562 C 63.410156 145.929688 64.5625 145.894531 65.652344 145.480469 C 67.230469 144.875 68.410156 143.570312 68.898438 141.921875 C 71.679688 132.664062 71.855469 123.191406 69.398438 115.273438 C 66.984375 107.355469 61.972656 100.203125 54.898438 94.566406 " fill-opacity="1" fill-rule="nonzero"/><g clip-path="url(#3cfa1a3045)"><path fill="#1c191a" d="M 90.4375 20.21875 C 89.914062 19.410156 89.328125 18.605469 88.640625 17.753906 C 88.328125 17.371094 88.007812 16.996094 87.695312 16.640625 C 87.328125 16.226562 86.988281 15.871094 86.667969 15.542969 C 86.265625 15.136719 85.867188 14.746094 85.480469 14.359375 C 84.660156 13.546875 83.878906 12.777344 83.242188 12.015625 C 82.402344 11.011719 81.863281 10.050781 81.640625 9.148438 C 81.578125 8.890625 81.496094 8.207031 81.429688 7.65625 L 81.3125 6.761719 C 81.207031 5.9375 81.089844 5 80.664062 3.683594 C 80.234375 2.367188 79.253906 1.367188 77.976562 0.929688 C 77.472656 0.757812 76.945312 0.683594 76.414062 0.699219 C 76.210938 0.707031 76.003906 0.726562 75.789062 0.765625 C 73.597656 1.140625 71.839844 3 71.519531 5.285156 L 66.765625 50.242188 C 65.757812 50.023438 64.695312 49.933594 63.589844 49.972656 C 61.957031 50.035156 60.300781 50.378906 58.652344 50.996094 C 51.660156 53.621094 47.140625 60.285156 48.363281 66.164062 C 49.011719 69.269531 51.203125 71.671875 54.375 72.757812 C 55.734375 73.222656 57.222656 73.433594 58.789062 73.375 C 60.425781 73.316406 62.089844 72.96875 63.742188 72.351562 C 69.378906 70.222656 73.566406 65.382812 74.164062 60.261719 L 78.351562 20.621094 C 78.738281 20.925781 79.117188 21.222656 79.492188 21.515625 C 79.894531 21.828125 80.28125 22.128906 80.621094 22.410156 L 81.515625 23.164062 C 81.855469 23.464844 82.113281 23.703125 82.335938 23.925781 C 82.863281 24.4375 83.363281 24.980469 83.828125 25.539062 C 85.855469 27.960938 86.992188 30.570312 87.214844 33.328125 C 87.480469 36.222656 86.648438 39.570312 84.863281 42.773438 C 84.191406 44 84.503906 45.519531 85.589844 46.3125 C 86.058594 46.652344 86.628906 46.828125 87.226562 46.808594 C 88.09375 46.777344 88.886719 46.335938 89.398438 45.613281 C 92.289062 41.566406 93.941406 36.984375 94.0625 32.71875 C 94.199219 28.460938 92.949219 24.144531 90.4375 20.21875 " fill-opacity="1" fill-rule="nonzero"/></g></g></g></g><g mask="url(#5b8e13b5a6)"><g transform="matrix(1, 0, 0, 1, 1127, 48)"><g clip-path="url(#a9b0234d05)"><path fill="#000000" d="M 89.644531 196.101562 C 89.105469 196.667969 88.507812 197.164062 87.855469 197.597656 C 85.953125 198.808594 83.886719 199.601562 81.660156 199.96875 C 79.71875 200.238281 77.773438 200.265625 75.820312 200.058594 C 73.871094 199.847656 71.976562 199.40625 70.136719 198.730469 C 68.292969 198.058594 66.5625 197.167969 64.9375 196.070312 C 63.3125 194.96875 61.84375 193.691406 60.535156 192.230469 C 57.492188 188.953125 55.261719 185.195312 53.839844 180.953125 C 52.941406 178.246094 52.34375 175.46875 52.050781 172.628906 C 51.804688 169.855469 51.804688 167.082031 52.050781 164.308594 C 52.050781 164.308594 54.589844 166.722656 57.914062 170.550781 C 61.242188 174.378906 65.402344 179.457031 69.558594 183.867188 C 73.398438 188.03125 77.863281 191.363281 82.949219 193.851562 C 84.507812 194.582031 86.117188 195.175781 87.773438 195.644531 Z M 89.644531 196.101562 " fill-opacity="1" fill-rule="nonzero"/><path fill="#000000" d="M 42.402344 224.648438 C 41.480469 226.0625 40.246094 227.117188 38.703125 227.808594 C 34.792969 229.570312 30.703125 230.636719 26.433594 231.015625 C 25.1875 231.015625 24.355469 231.304688 23.441406 231.304688 L 22.066406 231.304688 C 21.777344 231.289062 21.484375 231.289062 21.195312 231.304688 C 20.8125 231.417969 20.492188 231.320312 20.238281 231.015625 C 20.082031 230.710938 20.082031 230.402344 20.238281 230.097656 C 20.238281 229.890625 20.238281 229.890625 20.488281 229.472656 C 20.824219 229.039062 21.183594 228.621094 21.570312 228.226562 C 23.304688 226.496094 25.203125 224.972656 27.265625 223.648438 C 30.882812 221.351562 34.78125 219.714844 38.953125 218.738281 C 40.652344 218.324219 42.371094 218.019531 44.109375 217.824219 C 44.109375 218.40625 44.109375 218.988281 44.109375 219.613281 C 43.917969 221.417969 43.351562 223.097656 42.402344 224.648438 Z M 42.402344 224.648438 " fill-opacity="1" fill-rule="nonzero"/><path fill="#000000" d="M 55.378906 222.273438 C 55.628906 219.320312 55.378906 216.949219 55.378906 214.703125 C 55.378906 212.453125 55.378906 210.164062 55.378906 207.960938 C 55.378906 199.261719 54.714844 191.316406 54.171875 185.03125 C 54.171875 183.65625 53.964844 182.367188 53.839844 180.871094 C 52.964844 171.132812 52.136719 165.097656 51.925781 164.222656 C 50.351562 170.277344 49.089844 176.394531 48.140625 182.574219 C 47.144531 188.652344 46.0625 196.183594 45.148438 205.128906 C 44.855469 208.335938 44.523438 211.664062 44.191406 215.199219 C 42.417969 214.867188 40.628906 214.628906 38.828125 214.492188 C 34.757812 214.367188 30.773438 214.890625 26.871094 216.066406 C 22.972656 217.242188 19.363281 219.003906 16.039062 221.359375 C 15.257812 221.917969 14.511719 222.515625 13.792969 223.148438 C 12.851562 224.015625 12.03125 224.988281 11.339844 226.0625 C 10.582031 227.207031 10.066406 228.453125 9.785156 229.796875 C 9.503906 231.140625 9.480469 232.492188 9.71875 233.84375 C 9.960938 234.851562 10.335938 235.8125 10.84375 236.71875 C 11.351562 237.621094 11.972656 238.441406 12.703125 239.175781 C 13.4375 239.910156 14.257812 240.53125 15.164062 241.039062 C 16.066406 241.546875 17.027344 241.921875 18.035156 242.167969 C 19.242188 242.5 19.945312 242.582031 20.695312 242.75 L 23.023438 242.75 C 24.410156 242.832031 25.796875 242.832031 27.183594 242.75 C 33.140625 242.636719 38.824219 241.332031 44.234375 238.835938 C 47.46875 237.171875 50.105469 234.828125 52.136719 231.804688 C 54.019531 228.902344 55.101562 225.726562 55.378906 222.273438 Z M 38.742188 227.808594 C 34.835938 229.570312 30.746094 230.636719 26.476562 231.015625 C 25.230469 231.015625 24.398438 231.304688 23.480469 231.304688 L 22.066406 231.304688 C 21.777344 231.289062 21.484375 231.289062 21.195312 231.304688 C 20.8125 231.417969 20.492188 231.320312 20.238281 231.015625 C 20.082031 230.710938 20.082031 230.402344 20.238281 230.097656 C 20.238281 229.890625 20.238281 229.890625 20.488281 229.472656 C 20.824219 229.039062 21.183594 228.621094 21.570312 228.226562 C 23.304688 226.496094 25.203125 224.972656 27.265625 223.648438 C 30.882812 221.351562 34.78125 219.714844 38.953125 218.738281 C 40.652344 218.324219 42.371094 218.019531 44.109375 217.824219 C 44.109375 218.40625 44.109375 218.988281 44.109375 219.613281 C 43.917969 221.417969 43.351562 223.097656 42.402344 224.648438 C 41.457031 226.078125 40.195312 227.132812 38.621094 227.808594 Z M 38.742188 227.808594 " fill-opacity="1" fill-rule="nonzero"/><g clip-path="url(#b574ea032b)"><path fill="#000000" d="M 172.484375 83.246094 L 170.445312 82.496094 L 164.914062 80.621094 C 160.300781 79.167969 154.1875 77.210938 147.199219 75.464844 C 140.214844 73.714844 133.894531 72.550781 129.152344 71.550781 L 123.414062 70.59375 L 121.417969 70.429688 C 121.417969 70.429688 121.75 71.011719 122.5 72.050781 C 123.609375 73.5625 124.855469 74.949219 126.242188 76.210938 C 128.851562 78.613281 131.722656 80.65625 134.847656 82.332031 C 137.972656 84.007812 141.261719 85.269531 144.707031 86.117188 C 147.984375 86.902344 151.3125 87.296875 154.6875 87.296875 C 158.058594 87.296875 161.386719 86.902344 164.667969 86.117188 C 166.621094 85.570312 168.519531 84.878906 170.363281 84.035156 Z M 172.484375 83.246094 " fill-opacity="1" fill-rule="nonzero"/></g><path fill="#000000" d="M 151.773438 142.292969 C 150.4375 145.222656 148.414062 147.550781 145.703125 149.285156 C 144.742188 149.949219 143.683594 150.363281 142.53125 150.53125 C 141.375 150.699219 140.242188 150.605469 139.132812 150.242188 C 138.199219 149.84375 137.425781 149.238281 136.808594 148.429688 C 136.195312 147.621094 135.816406 146.714844 135.679688 145.707031 C 135.707031 145.214844 135.804688 144.738281 135.96875 144.277344 C 136.136719 143.8125 136.367188 143.382812 136.65625 142.988281 C 136.949219 142.59375 137.292969 142.246094 137.683594 141.953125 C 138.078125 141.65625 138.503906 141.425781 138.964844 141.253906 C 140.917969 140.523438 142.929688 140.207031 145.011719 140.300781 C 147.089844 140.394531 149.066406 140.894531 150.941406 141.792969 C 151.230469 141.945312 151.507812 142.113281 151.773438 142.292969 Z M 151.773438 142.292969 " fill-opacity="1" fill-rule="nonzero"/><g clip-path="url(#e3de920697)"><path fill="#000000" d="M 171.902344 101.804688 C 172.441406 95.976562 172.566406 91.359375 172.566406 88.195312 C 172.566406 85.035156 172.566406 83.246094 172.566406 83.246094 C 172.566406 83.578125 170.363281 89.070312 166.953125 99.058594 C 165.207031 104.175781 163.085938 110.5 160.589844 117.949219 C 159.34375 121.652344 157.972656 125.648438 156.433594 129.933594 C 154.894531 134.222656 153.980469 137.632812 152.273438 141.046875 L 151.816406 140.671875 C 150.261719 139.363281 148.570312 138.269531 146.742188 137.382812 C 145.398438 136.710938 143.988281 136.257812 142.503906 136.015625 C 141.023438 135.773438 139.539062 135.757812 138.050781 135.96875 C 136.113281 136.234375 134.324219 136.898438 132.6875 137.964844 C 131.714844 138.632812 130.875 139.4375 130.164062 140.375 C 129.449219 141.316406 128.90625 142.34375 128.527344 143.460938 C 128.070312 144.722656 127.84375 146.027344 127.84375 147.371094 C 127.84375 148.714844 128.070312 150.019531 128.527344 151.28125 C 129.480469 153.878906 131.03125 156.042969 133.1875 157.773438 C 134.332031 158.667969 135.582031 159.390625 136.929688 159.9375 C 138.335938 160.476562 139.789062 160.78125 141.296875 160.855469 C 144.195312 161.003906 146.96875 160.476562 149.613281 159.273438 C 152.175781 158.046875 154.460938 156.433594 156.472656 154.425781 C 158.484375 152.421875 160.105469 150.140625 161.339844 147.578125 C 163.371094 143.277344 164.9375 138.808594 166.039062 134.179688 C 167.160156 130.019531 168.035156 125.855469 168.824219 122.113281 C 170.230469 115.398438 171.253906 108.628906 171.902344 101.804688 Z M 151.691406 142.542969 C 150.351562 145.46875 148.328125 147.800781 145.621094 149.535156 C 144.660156 150.199219 143.601562 150.613281 142.445312 150.78125 C 141.292969 150.949219 140.160156 150.855469 139.050781 150.492188 C 138.117188 150.09375 137.339844 149.488281 136.726562 148.679688 C 136.109375 147.871094 135.734375 146.964844 135.597656 145.957031 C 135.625 145.464844 135.722656 144.988281 135.886719 144.527344 C 136.054688 144.0625 136.28125 143.632812 136.574219 143.238281 C 136.867188 142.84375 137.207031 142.496094 137.601562 142.203125 C 137.996094 141.90625 138.421875 141.671875 138.882812 141.503906 C 140.832031 140.773438 142.847656 140.457031 144.925781 140.550781 C 147.003906 140.644531 148.984375 141.144531 150.859375 142.042969 C 151.171875 142.152344 151.476562 142.277344 151.773438 142.417969 Z M 151.691406 142.542969 " fill-opacity="1" fill-rule="nonzero"/></g><path fill="#000000" d="M 102.746094 120.03125 C 102.449219 120.722656 102.101562 121.390625 101.707031 122.027344 C 101.066406 123.148438 100.195312 124.035156 99.085938 124.691406 C 97.480469 125.460938 95.789062 125.878906 94.011719 125.941406 C 91.972656 126.148438 89.269531 126.273438 87.398438 126.273438 C 86.050781 126.394531 84.761719 126.171875 83.53125 125.605469 C 83.148438 125.441406 82.816406 125.207031 82.535156 124.898438 C 82.351562 124.78125 82.238281 124.617188 82.203125 124.402344 C 82.0625 124.082031 82.0625 123.761719 82.203125 123.441406 C 82.632812 122.828125 83.175781 122.328125 83.824219 121.945312 C 85.449219 120.957031 87.195312 120.277344 89.0625 119.90625 C 92.433594 119.140625 95.828125 118.988281 99.25 119.449219 C 100.425781 119.578125 101.589844 119.773438 102.746094 120.03125 Z M 102.746094 120.03125 " fill-opacity="1" fill-rule="nonzero"/><path fill="#000000" d="M 119.960938 89.402344 C 121.210938 77.792969 121.210938 70.429688 121.210938 70.429688 C 121.210938 70.429688 118.589844 76.710938 114.761719 87.363281 C 112.851562 92.609375 110.605469 98.972656 108.027344 106.132812 L 103.949219 117.324219 L 103.660156 118.117188 C 102.773438 117.550781 101.859375 117.035156 100.914062 116.578125 C 97.25 114.796875 93.382812 113.851562 89.3125 113.746094 C 86.46875 113.605469 83.699219 113.980469 80.996094 114.871094 C 79.257812 115.457031 77.707031 116.359375 76.335938 117.574219 C 75.929688 117.929688 75.550781 118.316406 75.207031 118.734375 C 74.863281 119.152344 74.554688 119.59375 74.28125 120.0625 C 74.007812 120.53125 73.777344 121.019531 73.585938 121.523438 C 73.394531 122.03125 73.246094 122.550781 73.136719 123.082031 C 73.03125 123.613281 72.96875 124.148438 72.953125 124.6875 C 72.933594 125.230469 72.960938 125.769531 73.03125 126.304688 C 73.101562 126.84375 73.214844 127.371094 73.371094 127.890625 C 73.527344 128.40625 73.726562 128.910156 73.96875 129.394531 C 74.773438 131.023438 75.882812 132.410156 77.292969 133.554688 C 78.609375 134.546875 80.035156 135.324219 81.582031 135.894531 C 83.125 136.460938 84.71875 136.789062 86.359375 136.882812 C 89.035156 137.074219 91.710938 137.074219 94.386719 136.882812 C 97.832031 136.820312 101.089844 136 104.160156 134.429688 C 106.894531 132.902344 109.046875 130.78125 110.605469 128.0625 C 111.855469 125.9375 112.828125 123.691406 113.515625 121.320312 C 114.761719 117.160156 115.71875 113.371094 116.511719 109.585938 C 118.339844 102.054688 119.296875 95.1875 119.960938 89.402344 Z M 101.707031 122.027344 C 101.066406 123.148438 100.195312 124.035156 99.085938 124.691406 C 97.480469 125.460938 95.789062 125.878906 94.011719 125.941406 C 91.972656 126.148438 89.269531 126.273438 87.398438 126.273438 C 86.050781 126.394531 84.761719 126.171875 83.53125 125.605469 C 83.148438 125.441406 82.816406 125.207031 82.535156 124.898438 C 82.351562 124.78125 82.238281 124.617188 82.203125 124.402344 C 82.0625 124.082031 82.0625 123.761719 82.203125 123.441406 C 82.632812 122.828125 83.175781 122.328125 83.824219 121.945312 C 85.449219 120.957031 87.195312 120.277344 89.0625 119.90625 C 92.433594 119.140625 95.828125 118.988281 99.25 119.449219 C 100.371094 119.585938 101.480469 119.777344 102.578125 120.03125 C 102.335938 120.71875 102.046875 121.382812 101.707031 122.027344 Z M 101.707031 122.027344 " fill-opacity="1" fill-rule="nonzero"/><g clip-path="url(#9d0a919800)"><path fill="#000000" d="M 13.292969 0.808594 C 13.367188 1.652344 13.503906 2.484375 13.710938 3.304688 C 14.308594 5.664062 15.308594 7.84375 16.703125 9.839844 C 19.15625 13.023438 22.019531 15.785156 25.289062 18.117188 C 28.5625 20.449219 32.105469 22.253906 35.917969 23.53125 C 44.234375 26.566406 51.011719 28.316406 55.667969 30.644531 C 57.597656 31.636719 59.429688 32.789062 61.160156 34.097656 L 63.113281 35.597656 C 63.042969 34.839844 62.917969 34.089844 62.738281 33.351562 C 62.15625 31.164062 61.230469 29.140625 59.953125 27.273438 C 57.828125 24.285156 55.25 21.761719 52.21875 19.699219 C 48.355469 17.042969 44.226562 14.90625 39.824219 13.292969 C 32.046875 10.421875 25.269531 8.589844 20.53125 6.136719 C 18.558594 5.140625 16.730469 3.933594 15.039062 2.515625 C 13.792969 1.472656 13.292969 0.808594 13.292969 0.808594 Z M 13.292969 0.808594 " fill-opacity="1" fill-rule="nonzero"/></g><path fill="#000000" d="M 27.722656 67.390625 C 26.941406 68.976562 25.917969 70.390625 24.65625 71.632812 C 23.394531 72.875 21.964844 73.875 20.363281 74.628906 C 19.125 75.410156 17.78125 75.910156 16.335938 76.125 C 14.886719 76.34375 13.457031 76.261719 12.046875 75.878906 C 11.503906 75.582031 11.019531 75.210938 10.585938 74.769531 C 10.152344 74.328125 9.796875 73.835938 9.511719 73.285156 C 9.226562 72.738281 9.027344 72.160156 8.914062 71.554688 C 8.800781 70.945312 8.777344 70.335938 8.84375 69.71875 C 8.820312 68.292969 9.039062 66.902344 9.503906 65.550781 C 9.96875 64.199219 10.648438 62.96875 11.546875 61.855469 C 15.054688 58.171875 19.210938 55.507812 24.023438 53.867188 L 26.183594 53.035156 L 26.933594 55.445312 C 27.734375 57.335938 28.199219 59.304688 28.335938 61.351562 C 28.472656 63.398438 28.269531 65.410156 27.722656 67.390625 Z M 27.722656 67.390625 " fill-opacity="1" fill-rule="nonzero"/><g clip-path="url(#0a31d8c0a0)"><path fill="#000000" d="M 39.160156 61.605469 C 38.785156 58.746094 38.078125 55.972656 37.039062 53.28125 C 35.25 48.621094 33.585938 44.460938 31.882812 40.382812 C 28.472656 32.394531 25.269531 25.277344 22.484375 19.410156 C 17.203125 8.257812 13.292969 1.515625 13.292969 0.808594 C 13.292969 1.597656 14.292969 8.132812 16.871094 19.453125 C 18.242188 25.484375 20.113281 32.890625 22.609375 41.546875 C 23.566406 44.792969 24.5625 48.246094 25.6875 51.867188 L 23.773438 52.078125 C 21.550781 52.273438 19.363281 52.644531 17.203125 53.199219 C 14.070312 53.933594 11.1875 55.222656 8.550781 57.070312 C 6.753906 58.328125 5.234375 59.863281 3.992188 61.675781 C 2.753906 63.488281 1.875 65.464844 1.359375 67.597656 C 0.761719 70.179688 0.761719 72.757812 1.359375 75.339844 C 1.675781 76.878906 2.25 78.320312 3.078125 79.660156 C 3.90625 80.996094 4.941406 82.148438 6.183594 83.121094 C 7.476562 84.148438 8.90625 84.933594 10.46875 85.476562 C 12.027344 86.015625 13.636719 86.285156 15.289062 86.28125 C 18.375 86.300781 21.339844 85.71875 24.1875 84.535156 C 26.964844 83.375 29.503906 81.820312 31.800781 79.875 C 34.457031 77.660156 36.480469 74.96875 37.871094 71.800781 C 39.210938 68.519531 39.640625 65.121094 39.160156 61.605469 Z M 27.722656 67.390625 C 26.941406 68.976562 25.917969 70.390625 24.65625 71.632812 C 23.394531 72.875 21.964844 73.875 20.363281 74.628906 C 19.125 75.410156 17.78125 75.910156 16.335938 76.125 C 14.886719 76.34375 13.457031 76.261719 12.046875 75.878906 C 11.503906 75.582031 11.019531 75.210938 10.585938 74.769531 C 10.152344 74.328125 9.796875 73.835938 9.511719 73.285156 C 9.226562 72.738281 9.027344 72.160156 8.914062 71.554688 C 8.800781 70.945312 8.777344 70.335938 8.84375 69.71875 C 8.820312 68.292969 9.039062 66.902344 9.503906 65.550781 C 9.96875 64.199219 10.648438 62.96875 11.546875 61.855469 C 15.054688 58.171875 19.210938 55.507812 24.023438 53.867188 L 26.183594 53.035156 L 26.933594 55.445312 C 27.734375 57.335938 28.199219 59.304688 28.335938 61.351562 C 28.472656 63.398438 28.269531 65.410156 27.722656 67.390625 Z M 27.722656 67.390625 " fill-opacity="1" fill-rule="nonzero"/></g></g></g></g><g mask="url(#17dbc2ba4f)"><g transform="matrix(1, 0, 0, 1, 39, 48)"><g clip-path="url(#04d6294bee)"><path fill="#1b1c1e" d="M 99.40625 148.601562 C 96.769531 153.105469 92.046875 156.234375 86.617188 157.628906 L 86.617188 123.175781 C 88.316406 123.519531 89.875 124.09375 91.21875 124.566406 C 95.9375 126.25 105.78125 137.734375 99.40625 148.601562 Z M 63.285156 152.105469 C 52.019531 141.847656 47.441406 126.289062 59.480469 113.273438 C 65.058594 107.257812 73.132812 100.253906 81.09375 92.917969 L 81.09375 110.5 C 70.640625 112.683594 64.5 123.019531 64.789062 131.558594 C 65.109375 141.671875 69.53125 148.972656 73.226562 150.476562 C 73.226562 150.476562 75.652344 152.191406 76.6875 149.910156 C 77.019531 149.113281 76.648438 148.402344 75.777344 147.722656 C 74.890625 147.058594 64.75 140.574219 71.898438 130.265625 C 75.003906 125.8125 78.136719 123.839844 81.09375 123.160156 L 81.09375 158.425781 C 74.863281 158.664062 68.335938 156.714844 63.285156 152.105469 Z M 101.21875 35.445312 C 112.1875 43.75 97.632812 63.972656 86.617188 76.25 L 86.617188 63.390625 C 88.433594 46.085938 92.433594 28.785156 101.21875 35.445312 Z M 87.292969 110.191406 C 87.070312 110.171875 86.84375 110.160156 86.617188 110.148438 L 86.617188 87.726562 C 93.839844 80.804688 100.425781 73.710938 104.289062 67 C 115.183594 48.066406 113.636719 27.738281 101.101562 24.324219 C 88.589844 20.882812 80.710938 52.03125 81.09375 66.933594 L 81.09375 82.082031 C 79.882812 83.28125 78.851562 84.257812 78.058594 84.964844 C 68.6875 93.3125 48.066406 106.683594 45.460938 123.128906 C 42 144.960938 62.699219 161.347656 81.09375 162.078125 L 81.09375 193.175781 C 81.09375 193.175781 80.152344 200.496094 72.949219 200.496094 C 61.019531 200.496094 59.582031 194.523438 59.582031 194.523438 C 59.582031 194.523438 68.351562 196.355469 71.679688 188.589844 C 71.679688 188.589844 75.378906 177.59375 64.382812 174.402344 C 53.410156 171.207031 48.007812 181.523438 49.65625 190 C 51.070312 197.273438 57.703125 205.265625 72.566406 205.394531 C 84.972656 205.5 86.617188 197.335938 86.617188 193.175781 L 86.617188 161.824219 C 87.90625 161.632812 89.171875 161.359375 90.398438 160.984375 C 110.132812 155.042969 113.097656 135.613281 110.871094 128.8125 C 108.207031 120.738281 101.464844 111.589844 87.292969 110.191406 " fill-opacity="1" fill-rule="nonzero"/><path fill="#1b1c1e" d="M 552.433594 31.554688 C 545.355469 25.445312 544.667969 24.015625 544.105469 20.777344 L 544.105469 18.515625 L 542.257812 19.980469 L 542.257812 61.304688 C 541.96875 61.109375 537.902344 58.492188 532.085938 60.664062 C 526.054688 62.914062 527.65625 67.21875 528.578125 68.449219 C 529.589844 69.796875 534.636719 72.441406 540.722656 69.167969 C 540.722656 69.167969 544.160156 67.628906 544.109375 62.785156 C 544.105469 61.644531 544.121094 61.128906 544.105469 56.242188 L 544.105469 30.183594 C 546.074219 30.828125 560.578125 36.210938 553.058594 53.078125 C 553.058594 53.078125 563.4375 41.058594 552.433594 31.554688 " fill-opacity="1" fill-rule="nonzero"/><path fill="#1b1c1e" d="M 356.148438 107.234375 C 349.175781 101.21875 345.304688 97.464844 343.023438 94.433594 L 343.023438 79.039062 C 346.65625 80.222656 371.363281 89.394531 363.855469 116.957031 C 362.265625 113.667969 359.792969 110.378906 356.148438 107.234375 Z M 359.71875 81.792969 C 345.535156 69.558594 344.15625 66.6875 343.023438 60.191406 L 343.023438 55.660156 L 339.320312 58.59375 L 339.320312 141.40625 C 338.742188 141.019531 330.59375 135.757812 318.949219 140.117188 C 306.851562 144.628906 310.066406 153.246094 311.914062 155.707031 C 313.933594 158.414062 324.0625 163.707031 336.265625 157.152344 C 336.265625 157.152344 343.132812 154.070312 343.042969 144.367188 C 343.019531 142.078125 343.070312 141.042969 343.023438 131.257812 L 343.023438 105.898438 C 351.613281 109.839844 370.042969 121.996094 357.40625 150.363281 C 357.40625 150.363281 370.574219 135.097656 364.832031 119.269531 C 369.5625 111.007812 375.195312 95.160156 359.71875 81.792969 " fill-opacity="1" fill-rule="nonzero"/><path fill="#1b1c1e" d="M 194.832031 196.722656 C 195.3125 194.992188 195.59375 193 195.570312 190.71875 C 195.546875 187.851562 195.558594 79.464844 195.558594 79.464844 L 190.90625 83.140625 L 190.90625 187.011719 C 190.84375 186.960938 190.695312 186.867188 190.480469 186.730469 C 186.269531 183.390625 179.542969 181.671875 172.25 182.585938 C 160.722656 184.027344 152.167969 191.484375 153.136719 199.25 C 154.105469 207 164.234375 212.125 175.761719 210.675781 C 180.625 210.070312 184.960938 208.382812 188.273438 206.066406 C 188.710938 205.769531 189.238281 205.390625 189.8125 204.882812 C 192.566406 202.542969 194.375 199.710938 194.832031 196.722656 " fill-opacity="1" fill-rule="nonzero"/><path fill="#1b1c1e" d="M 412.882812 113.789062 C 407.765625 114.433594 403.265625 112.160156 402.832031 108.710938 C 402.402344 105.265625 406.199219 101.953125 411.324219 101.3125 C 416.453125 100.667969 420.945312 102.941406 421.378906 106.394531 C 421.808594 109.839844 418.003906 113.148438 412.882812 113.789062 Z M 425.515625 34.945312 L 422.640625 37.21875 L 422.640625 101.519531 L 422.371094 101.355469 C 419.761719 99.28125 415.59375 98.222656 411.082031 98.789062 C 403.945312 99.675781 398.652344 104.300781 399.253906 109.101562 C 399.847656 113.902344 406.125 117.070312 413.261719 116.175781 C 416.269531 115.800781 418.957031 114.757812 421.007812 113.316406 C 421.277344 113.136719 421.601562 112.898438 421.953125 112.589844 C 423.660156 111.144531 424.78125 109.390625 425.070312 107.542969 C 425.359375 106.46875 425.539062 105.234375 425.527344 103.824219 C 425.503906 102.046875 425.515625 34.945312 425.515625 34.945312 " fill-opacity="1" fill-rule="nonzero"/><path fill="#1b1c1e" d="M 253.339844 156.972656 C 245.507812 157.957031 238.625 154.480469 237.960938 149.203125 C 237.304688 143.933594 243.117188 138.871094 250.953125 137.894531 C 258.78125 136.910156 265.667969 140.394531 266.324219 145.65625 C 266.980469 150.925781 261.167969 155.996094 253.339844 156.972656 Z M 272.652344 36.378906 L 268.257812 39.871094 L 268.257812 138.210938 C 268.191406 138.175781 268.058594 138.082031 267.839844 137.957031 C 263.859375 134.792969 257.488281 133.167969 250.585938 134.03125 C 239.667969 135.398438 231.5625 142.453125 232.484375 149.804688 C 233.402344 157.148438 242.992188 161.996094 253.914062 160.625 C 258.519531 160.054688 262.621094 158.457031 265.753906 156.257812 C 266.167969 155.984375 266.667969 155.617188 267.207031 155.144531 C 269.816406 152.929688 271.527344 150.242188 271.964844 147.417969 C 272.414062 145.78125 272.691406 143.894531 272.671875 141.726562 C 272.632812 139.015625 272.652344 36.378906 272.652344 36.378906 " fill-opacity="1" fill-rule="nonzero"/><path fill="#1b1c1e" d="M 504.894531 77.152344 L 504.894531 24.886719 L 463.972656 31.511719 L 463.972656 81.964844 C 462.183594 81.207031 459.9375 80.890625 457.558594 81.191406 C 452.28125 81.851562 448.363281 85.265625 448.804688 88.820312 C 449.246094 92.363281 453.886719 94.714844 459.167969 94.050781 C 461.394531 93.773438 463.378906 92.996094 464.894531 91.933594 C 465.101562 91.800781 465.339844 91.625 465.601562 91.394531 C 466.867188 90.324219 467.6875 89.03125 467.898438 87.664062 C 468.117188 86.871094 468.25 85.953125 468.238281 84.910156 C 468.238281 84.785156 468.238281 84.21875 468.238281 83.296875 L 468.238281 45.152344 L 500.632812 39.480469 L 500.632812 75.816406 C 498.839844 75.058594 496.59375 74.738281 494.222656 75.046875 C 488.941406 75.699219 485.027344 79.117188 485.464844 82.664062 C 485.910156 86.21875 490.546875 88.5625 495.824219 87.902344 C 498.054688 87.621094 500.035156 86.851562 501.5625 85.792969 C 501.757812 85.65625 501.996094 85.480469 502.257812 85.246094 C 503.523438 84.175781 504.34375 82.878906 504.554688 81.511719 C 504.761719 80.765625 504.886719 79.914062 504.894531 78.949219 L 504.894531 78.769531 C 504.894531 78.636719 504.894531 78.074219 504.894531 77.152344 " fill-opacity="1" fill-rule="nonzero"/><g clip-path="url(#dfcc2938c8)"><path fill="#1b1c1e" d="M 576.355469 17.726562 C 384.355469 9.75 192.347656 160.582031 0.34375 0.53125 L 0.34375 6.058594 C 192.347656 164.710938 384.355469 12.488281 576.355469 19.074219 L 576.355469 17.726562 " fill-opacity="1" fill-rule="nonzero"/></g><g clip-path="url(#bf3300846d)"><path fill="#1b1c1e" d="M 576.355469 28.492188 C 384.355469 31.597656 192.347656 193.519531 0.34375 44.5625 L 0.34375 50.070312 C 192.347656 197.644531 384.355469 34.335938 576.355469 29.835938 L 576.355469 28.492188 " fill-opacity="1" fill-rule="nonzero"/></g><g clip-path="url(#24f0e5392f)"><path fill="#1b1c1e" d="M 576.355469 39.253906 C 384.355469 53.449219 192.347656 226.453125 0.34375 88.574219 L 0.34375 94.09375 C 192.347656 230.578125 384.355469 56.1875 576.355469 40.601562 L 576.355469 39.253906 " fill-opacity="1" fill-rule="nonzero"/></g><g clip-path="url(#c2d18b8349)"><path fill="#1b1c1e" d="M 576.355469 50.019531 C 384.355469 75.296875 192.347656 259.386719 0.34375 132.597656 L 0.34375 138.105469 C 192.347656 263.511719 384.355469 78.035156 576.355469 51.367188 L 576.355469 50.019531 " fill-opacity="1" fill-rule="nonzero"/></g><g clip-path="url(#276136ebb4)"><path fill="#1b1c1e" d="M 576.355469 60.785156 C 384.355469 97.152344 192.347656 292.320312 0.34375 176.617188 L 0.34375 182.128906 C 192.347656 296.445312 384.355469 99.882812 576.355469 62.132812 L 576.355469 60.785156 " fill-opacity="1" fill-rule="nonzero"/></g></g></g></g><g mask="url(#69ad2dd053)"><g transform="matrix(1, 0, 0, 1, 1025, 455)"><g clip-path="url(#09113fe572)"><g clip-path="url(#1feff6ef53)"><path fill="#231f20" d="M 51.429688 236.964844 C 41.359375 236.964844 30.207031 235.03125 22.902344 226.933594 C 14.273438 217.386719 14.84375 202.859375 19.238281 192.664062 C 23.957031 181.753906 32.851562 173.085938 41.746094 165.332031 C 55.460938 153.40625 70.175781 142.457031 85.519531 132.773438 C 89.894531 130.003906 94.410156 127.296875 98.765625 124.671875 C 109.980469 117.917969 121.558594 110.957031 131.816406 102.550781 C 143.210938 93.230469 157.660156 77.949219 161.871094 58.027344 C 165.839844 39.179688 158.3125 19.175781 143.964844 10.445312 C 131.429688 2.835938 115.738281 3.609375 102.042969 5.359375 C 67.425781 9.816406 33.015625 21.070312 2.46875 37.941406 C 1.980469 38.226562 1.351562 38.042969 1.085938 37.53125 C 0.820312 37.042969 0.984375 36.414062 1.492188 36.148438 C 32.242188 19.175781 66.917969 7.820312 101.777344 3.34375 C 115.820312 1.554688 131.9375 0.761719 145.023438 8.71875 C 160.324219 18.015625 168.078125 38.46875 163.867188 58.453125 C 159.550781 78.964844 144.757812 94.613281 133.117188 104.140625 C 122.757812 112.625 111.097656 119.644531 99.824219 126.421875 C 95.46875 129.046875 90.972656 131.753906 86.597656 134.5 C 71.355469 144.128906 56.703125 155.015625 43.066406 166.878906 C 34.335938 174.46875 25.648438 182.933594 21.089844 193.476562 C 16.9375 203.0625 16.367188 216.695312 24.386719 225.570312 C 33.625 235.785156 49.78125 235.519531 61.097656 234.421875 C 104.117188 230.269531 145.980469 214.703125 186.457031 199.640625 C 236.820312 180.898438 288.9375 161.546875 343.050781 164.457031 C 343.621094 164.476562 344.046875 164.964844 344.007812 165.535156 C 343.984375 166.105469 343.558594 166.59375 342.929688 166.492188 C 289.242188 163.582031 237.332031 182.875 187.148438 201.535156 C 146.546875 216.636719 104.566406 232.265625 61.28125 236.4375 C 58.25 236.71875 54.890625 236.964844 51.390625 236.964844 Z M 51.429688 236.964844 " fill-opacity="1" fill-rule="nonzero"/></g><path fill="#231f20" d="M 81.609375 233.566406 C 81.46875 233.566406 81.324219 233.546875 81.183594 233.464844 C 80.675781 233.21875 80.449219 232.628906 80.695312 232.101562 C 89.101562 214.089844 105.910156 202.410156 123.695312 190.058594 C 135.050781 182.183594 146.773438 174.023438 156.804688 163.847656 C 174.019531 146.367188 181.898438 122.839844 179.617188 95.816406 C 177.359375 69.238281 166.511719 43.863281 156.195312 22.554688 C 155.949219 22.046875 156.152344 21.4375 156.664062 21.191406 C 157.171875 20.949219 157.78125 21.152344 158.027344 21.660156 C 168.425781 43.148438 179.351562 68.730469 181.632812 95.652344 C 183.972656 123.269531 175.894531 147.34375 158.25 165.269531 C 148.09375 175.589844 136.273438 183.789062 124.855469 191.726562 C 107.292969 203.917969 90.707031 215.433594 82.527344 232.957031 C 82.363281 233.320312 81.976562 233.546875 81.609375 233.546875 Z M 81.609375 233.566406 " fill-opacity="1" fill-rule="nonzero"/><g clip-path="url(#91549facad)"><path fill="#231f20" d="M 79.046875 314.945312 C 64.640625 314.945312 54.421875 311.285156 48.929688 303.855469 C 31.203125 279.84375 17.957031 219.117188 17.386719 216.53125 C 17.261719 215.984375 17.609375 215.433594 18.160156 215.332031 C 18.707031 215.210938 19.257812 215.554688 19.359375 216.105469 C 19.503906 216.738281 33.074219 278.988281 50.535156 302.636719 C 66.855469 324.734375 131.226562 310.347656 222.78125 264.152344 C 278.152344 236.210938 344.757812 240.078125 345.410156 240.117188 C 345.980469 240.160156 346.40625 240.628906 346.367188 241.199219 C 346.328125 241.765625 345.898438 242.195312 345.289062 242.152344 C 344.617188 242.113281 278.558594 238.289062 223.695312 265.984375 C 159.753906 298.257812 109.796875 314.945312 79.007812 314.945312 Z M 79.046875 314.945312 " fill-opacity="1" fill-rule="nonzero"/></g><path fill="#231f20" d="M 13.234375 123.695312 C 12.867188 123.695312 12.523438 123.492188 12.339844 123.144531 C 12.074219 122.65625 12.277344 122.027344 12.765625 121.78125 C 53.894531 100.253906 100.148438 88.285156 146.546875 87.167969 C 147.117188 87.226562 147.566406 87.59375 147.585938 88.164062 C 147.585938 88.734375 147.160156 89.179688 146.589844 89.203125 C 100.496094 90.320312 54.566406 102.207031 13.703125 123.59375 C 13.558594 123.675781 13.398438 123.714844 13.234375 123.714844 Z M 13.234375 123.695312 " fill-opacity="1" fill-rule="nonzero"/><path fill="#231f20" d="M 8.574219 80.53125 C 8.207031 80.53125 7.863281 80.351562 7.679688 80.003906 C 7.414062 79.515625 7.597656 78.882812 8.085938 78.621094 C 57.332031 52.0625 126.441406 33.359375 163.214844 48.988281 C 163.722656 49.214844 163.96875 49.804688 163.746094 50.332031 C 163.519531 50.84375 162.929688 51.085938 162.402344 50.863281 C 126.199219 35.496094 57.84375 54.097656 9.023438 80.429688 C 8.859375 80.511719 8.695312 80.554688 8.535156 80.554688 Z M 8.574219 80.53125 " fill-opacity="1" fill-rule="nonzero"/><path fill="#231f20" d="M 5.214844 57.800781 C 4.871094 57.800781 4.523438 57.617188 4.339844 57.292969 C 4.054688 56.804688 4.238281 56.171875 4.726562 55.910156 C 26.808594 43.3125 57.84375 31.792969 85.722656 25.832031 C 109.367188 20.785156 141.601562 17.265625 160.835938 29.210938 C 161.300781 29.515625 161.464844 30.125 161.160156 30.613281 C 160.855469 31.101562 160.222656 31.246094 159.753906 30.9375 C 127.96875 11.179688 48.625 33.179688 5.726562 57.660156 C 5.5625 57.742188 5.398438 57.800781 5.214844 57.800781 Z M 5.214844 57.800781 " fill-opacity="1" fill-rule="nonzero"/><path fill="#231f20" d="M 12.054688 101.65625 C 11.707031 101.65625 11.363281 101.472656 11.179688 101.148438 C 10.894531 100.660156 11.058594 100.046875 11.546875 99.765625 C 53.285156 75.425781 133.566406 52.328125 158.921875 70.277344 C 159.390625 70.601562 159.492188 71.234375 159.164062 71.699219 C 158.839844 72.167969 158.210938 72.269531 157.742188 71.945312 C 135.171875 55.96875 57.761719 75.179688 12.5625 101.515625 C 12.398438 101.617188 12.214844 101.65625 12.054688 101.65625 Z M 12.054688 101.65625 " fill-opacity="1" fill-rule="nonzero"/><path fill="#231f20" d="M 37.734375 235.316406 C 37.289062 235.316406 36.882812 235.03125 36.757812 234.582031 C 25.300781 195.675781 60.933594 171.886719 98.644531 146.710938 C 111.769531 137.941406 125.34375 128.886719 136.699219 119.15625 C 178.457031 83.382812 171.234375 59.957031 171.152344 59.714844 C 170.96875 59.183594 171.253906 58.617188 171.78125 58.433594 C 172.3125 58.269531 172.882812 58.535156 173.066406 59.0625 C 173.410156 60.058594 180.960938 83.890625 138 120.703125 C 126.566406 130.511719 112.929688 139.609375 99.742188 148.402344 C 62.664062 173.148438 27.640625 196.527344 38.671875 234.015625 C 38.835938 234.5625 38.53125 235.113281 37.980469 235.277344 C 37.878906 235.296875 37.796875 235.316406 37.695312 235.316406 Z M 37.734375 235.316406 " fill-opacity="1" fill-rule="nonzero"/><path fill="#231f20" d="M 53.160156 236.597656 C 52.671875 236.597656 52.246094 236.253906 52.164062 235.765625 C 49.78125 222.839844 53.242188 210.347656 61.910156 200.558594 C 75.628906 185.050781 92.804688 172.820312 109.410156 161.019531 C 115.269531 156.847656 121.335938 152.53125 127.132812 148.136719 C 144.960938 134.664062 169.644531 113.417969 178.089844 84.460938 C 178.253906 83.910156 178.804688 83.605469 179.351562 83.769531 C 179.902344 83.929688 180.207031 84.5 180.042969 85.03125 C 171.4375 114.578125 146.425781 136.128906 128.355469 149.765625 C 122.515625 154.179688 116.449219 158.496094 110.570312 162.667969 C 94.042969 174.410156 76.972656 186.558594 63.417969 201.902344 C 55.175781 211.222656 51.898438 223.105469 54.160156 235.398438 C 54.261719 235.945312 53.894531 236.476562 53.34375 236.578125 C 53.285156 236.578125 53.222656 236.578125 53.160156 236.578125 Z M 53.160156 236.597656 " fill-opacity="1" fill-rule="nonzero"/><path fill="#231f20" d="M 66.105469 234.238281 C 66.105469 234.238281 66.023438 234.238281 65.980469 234.238281 C 65.433594 234.175781 65.027344 233.667969 65.085938 233.097656 C 66.898438 218.078125 78.679688 206.15625 88.753906 197.464844 C 97.199219 190.179688 106.195312 183.851562 114.882812 177.726562 C 122.699219 172.230469 130.796875 166.53125 138.46875 160.164062 C 158.085938 143.84375 171.171875 128.863281 179.636719 113.011719 C 179.902344 112.503906 180.535156 112.339844 181.023438 112.585938 C 181.511719 112.847656 181.714844 113.460938 181.449219 113.96875 C 172.859375 130.042969 159.613281 145.226562 139.773438 161.710938 C 132.039062 168.140625 123.917969 173.859375 116.0625 179.375 C 107.414062 185.457031 98.460938 191.746094 90.097656 198.992188 C 80.308594 207.457031 68.832031 218.996094 67.121094 233.34375 C 67.058594 233.851562 66.613281 234.238281 66.105469 234.238281 Z M 66.105469 234.238281 " fill-opacity="1" fill-rule="nonzero"/><path fill="#231f20" d="M 58.230469 260.0625 C 45.734375 260.0625 33.199219 257.375 25.914062 248.542969 C 25.546875 248.117188 25.605469 247.464844 26.054688 247.121094 C 26.480469 246.753906 27.132812 246.8125 27.480469 247.261719 C 41.644531 264.4375 78.679688 256.460938 89.710938 253.589844 C 117.527344 246.386719 141.867188 237.574219 167.632812 228.253906 C 181.796875 223.125 196.46875 217.816406 211.894531 212.75 L 218.019531 210.734375 C 258.332031 197.445312 304.019531 182.40625 342.074219 183.910156 C 342.644531 183.933594 343.070312 184.398438 343.050781 184.96875 C 343.03125 185.539062 342.582031 185.945312 341.992188 185.945312 C 304.382812 184.398438 258.820312 199.4375 218.667969 212.667969 L 212.542969 214.679688 C 197.160156 219.75 182.507812 225.039062 168.34375 230.167969 C 142.539062 239.507812 118.160156 248.339844 90.238281 255.566406 C 83.015625 257.4375 70.640625 260.0625 58.25 260.0625 Z M 58.230469 260.0625 " fill-opacity="1" fill-rule="nonzero"/><g clip-path="url(#581cf407b4)"><path fill="#231f20" d="M 67.691406 281.207031 C 56.375 281.207031 45.753906 279.558594 35.90625 276.28125 C 35.375 276.097656 35.089844 275.527344 35.253906 275 C 35.4375 274.46875 36.007812 274.164062 36.535156 274.347656 C 58.859375 281.777344 85.191406 280.59375 114.800781 270.886719 C 131.773438 265.3125 148.257812 257.578125 164.191406 250.089844 C 172.089844 246.367188 180.269531 242.539062 188.410156 239 C 238.347656 217.328125 291.21875 205.074219 345.59375 202.574219 C 346.164062 202.492188 346.632812 202.980469 346.652344 203.550781 C 346.671875 204.121094 346.246094 204.585938 345.675781 204.609375 C 291.542969 207.089844 238.917969 219.300781 189.203125 240.871094 C 181.082031 244.394531 172.941406 248.21875 165.046875 251.941406 C 149.050781 259.453125 132.527344 267.226562 115.433594 272.84375 C 98.421875 278.417969 82.464844 281.226562 67.691406 281.226562 Z M 67.691406 281.207031 " fill-opacity="1" fill-rule="nonzero"/></g><g clip-path="url(#6add64ac47)"><path fill="#231f20" d="M 76.992188 298.6875 C 65.535156 298.6875 54.300781 297.363281 43.332031 294.71875 C 42.78125 294.578125 42.457031 294.046875 42.578125 293.496094 C 42.703125 292.949219 43.25 292.621094 43.800781 292.746094 C 74.0625 300.050781 106.417969 297.101562 139.996094 284.015625 C 155.441406 277.992188 170.929688 270.195312 185.886719 262.667969 C 201.332031 254.894531 217.304688 246.855469 233.300781 240.710938 C 268.589844 227.15625 305.28125 220.441406 345.429688 220.175781 C 345.980469 220.175781 346.449219 220.625 346.449219 221.195312 C 346.449219 221.761719 346 222.210938 345.429688 222.210938 C 305.523438 222.476562 269.097656 229.148438 234.035156 242.621094 C 218.121094 248.726562 202.207031 256.746094 186.800781 264.5 C 171.78125 272.046875 156.253906 279.863281 140.726562 285.925781 C 118.914062 294.433594 97.566406 298.707031 76.972656 298.707031 Z M 76.992188 298.6875 " fill-opacity="1" fill-rule="nonzero"/></g><path fill="#231f20" d="M 48.074219 101.148438 C 61.6875 87.636719 74.9375 73.0625 74.164062 53.648438 C 73.308594 32.425781 49.191406 18.8125 31.835938 32.6875 C 20.234375 41.765625 21.535156 61.871094 38.082031 63.519531 C 47.464844 64.457031 53.507812 52.9375 47.910156 45.570312 C 45.265625 42.011719 40.117188 40.953125 36.085938 42.578125 C 34.621094 43.148438 33.300781 44.125 32.34375 45.386719 C 35.050781 38.570312 44.675781 32.160156 54.933594 36.839844 C 64.78125 41.214844 70.664062 57.332031 66.082031 71.171875 C 62.929688 82.179688 55.398438 91.867188 48.074219 101.167969 Z M 48.074219 101.148438 " fill-opacity="1" fill-rule="nonzero"/><path fill="#231f20" d="M 92.316406 33.605469 C 92.316406 33.605469 92.273438 33.585938 92.253906 33.585938 C 88.429688 32.667969 84.90625 37.429688 87.105469 40.769531 C 89.179688 44.167969 95 43.699219 96 39.667969 C 97.058594 36.535156 94.859375 33.992188 92.316406 33.605469 Z M 92.316406 33.605469 " fill-opacity="1" fill-rule="nonzero"/><path fill="#231f20" d="M 88.121094 53.445312 C 88.121094 53.445312 88.082031 53.488281 88.0625 53.507812 C 86.066406 54.6875 84.90625 57.414062 86.128906 59.632812 C 88.246094 63.742188 94.613281 63.011719 95.796875 58.554688 C 97.363281 53.957031 91.746094 50.3125 88.121094 53.46875 Z M 88.121094 53.445312 " fill-opacity="1" fill-rule="nonzero"/><path fill="#231f20" d="M 158.675781 140.910156 C 158.597656 139.914062 158.71875 138.632812 157.699219 138.0625 C 156.4375 137.25 154.667969 138.53125 155.09375 139.996094 C 155.847656 143.109375 152.632812 147.871094 150.457031 153.082031 C 149.011719 147.585938 147.6875 142.050781 146.609375 136.476562 C 146.058594 134.378906 145.734375 132.203125 145.410156 130.023438 C 152.652344 130.574219 160.324219 113.621094 151.574219 110.8125 C 146.75 109.265625 139.8125 120.804688 141.460938 126.726562 C 142.253906 136.597656 143.882812 146.425781 146.875 155.890625 C 147.464844 157.824219 148.136719 159.734375 148.847656 161.628906 C 148.96875 162.117188 149.296875 162.542969 149.722656 162.808594 C 149.742188 162.808594 149.765625 162.808594 149.804688 162.847656 C 150.863281 164.210938 153.265625 163.683594 153.691406 161.996094 C 153.730469 159.023438 153.164062 158.984375 153.914062 156.359375 C 155.09375 151.230469 158.597656 147.34375 158.699219 140.933594 Z M 158.675781 140.910156 " fill-opacity="1" fill-rule="nonzero"/><path fill="#231f20" d="M 117.507812 182.203125 C 117.347656 181.695312 117.203125 181.207031 117.121094 180.777344 C 113.4375 172.941406 111.933594 164.984375 108.371094 155.972656 C 108.371094 153.792969 105.726562 152.265625 103.773438 153.550781 C 99.417969 155.871094 95.042969 158.128906 90.667969 160.40625 C 83.542969 164.375 75.832031 167.632812 68.992188 172.007812 C 68.933594 172.089844 68.914062 172.167969 68.851562 172.25 C 67.976562 172.882812 67.527344 174.125 68.140625 175.179688 C 71.617188 183.648438 76.015625 193.027344 78.679688 200.476562 C 72.859375 202.492188 66.328125 217.488281 73.898438 219.464844 C 78.699219 220.726562 83.992188 213.625 84.683594 207.640625 C 84.703125 207.578125 84.746094 207.519531 84.765625 207.457031 C 85.945312 202.796875 84.054688 198.074219 82.121094 193.882812 C 80.714844 190.789062 79.210938 187.738281 77.703125 184.707031 C 87.714844 180.25 97.625 175.488281 107.679688 171.089844 C 107.863281 171.011719 108.003906 170.929688 108.148438 170.867188 C 108.878906 172.578125 109.570312 174.203125 110.101562 175.628906 C 110.691406 177.398438 111.199219 179.273438 111.769531 181.125 C 106.253906 184.378906 100.882812 197.769531 108.003906 199.640625 C 114.558594 201.351562 121.964844 187.59375 117.527344 182.242188 Z M 105.828125 166.777344 C 95.898438 171.621094 85.78125 176.097656 75.8125 180.859375 C 75.527344 180.289062 75.261719 179.738281 74.976562 179.171875 C 74.710938 178.640625 74.46875 178.089844 74.203125 177.542969 C 74.609375 177.625 75.039062 177.601562 75.484375 177.359375 C 82.097656 174.042969 88.734375 170.746094 95.46875 167.652344 C 98.886719 165.902344 102.246094 164.558594 104.75 162.746094 C 105.257812 164.03125 105.765625 165.3125 106.296875 166.554688 C 106.132812 166.613281 105.96875 166.675781 105.828125 166.777344 Z M 105.828125 166.777344 " fill-opacity="1" fill-rule="nonzero"/><path fill="#231f20" d="M 140.160156 240.546875 C 139.730469 237.902344 139.242188 235.253906 138.671875 232.652344 C 138.488281 231.042969 137.554688 229.355469 135.78125 229.171875 C 134.011719 229.007812 132.996094 229.78125 132.546875 230.921875 C 117.875 241.585938 104.078125 253.367188 90.828125 265.761719 C 89.8125 266.738281 89.75 267.917969 90.199219 268.875 C 89.953125 270.175781 90.644531 271.4375 90.890625 272.699219 C 93.167969 283.199219 93.78125 290.730469 94.429688 301.292969 C 86.902344 299.316406 72.351562 316.878906 82.160156 321.4375 C 89.425781 324.816406 100.738281 313.238281 98.828125 305.808594 C 99.195312 296.285156 98.625 286.761719 96.933594 277.378906 C 96.75 276.261719 96.546875 275.164062 96.324219 274.042969 C 106.988281 261.445312 121.945312 248.769531 133.542969 239.671875 C 133.828125 241.257812 134.113281 242.824219 134.339844 244.414062 C 135.457031 252.125 136.351562 258.941406 136.453125 267.285156 C 129.027344 264.722656 113.925781 282.734375 123.859375 287.332031 C 130.066406 290.199219 139.222656 282.183594 140.566406 275.164062 C 140.789062 274.816406 140.953125 274.410156 140.933594 273.941406 C 141.726562 262.808594 141.96875 251.578125 140.117188 240.527344 Z M 140.160156 240.546875 " fill-opacity="1" fill-rule="nonzero"/><path fill="#231f20" d="M 249.988281 228.867188 C 244.921875 226.199219 235.378906 234.808594 233.789062 241.765625 C 233.546875 242.132812 233.402344 242.5625 233.402344 243.027344 C 233.402344 246.0625 233.523438 249.074219 233.6875 252.105469 C 225.832031 245.328125 217.976562 238.574219 210.082031 231.835938 C 209.917969 231.652344 209.714844 231.550781 209.53125 231.449219 C 209.1875 225.832031 208.839844 220.238281 208.453125 214.621094 C 217.367188 215.414062 229.351562 199.4375 219.441406 194.25 C 213.480469 191.117188 201.351562 203.570312 203.203125 210.589844 C 203.773438 219.851562 204.363281 229.128906 205.015625 238.390625 C 205.503906 241.542969 205.136719 245.042969 205.972656 248.097656 C 205.949219 248.625 206.113281 249.175781 206.5625 249.644531 C 214.882812 256.683594 223.085938 263.867188 230.777344 271.621094 C 232.957031 273.777344 235.070312 276.039062 237.25 278.214844 C 237.695312 278.683594 238.347656 278.96875 239 278.96875 C 239.164062 278.96875 239.265625 278.90625 239.40625 278.867188 C 239.550781 278.867188 239.671875 278.886719 239.8125 278.886719 C 241.421875 278.785156 242.4375 277.054688 242.074219 275.546875 C 240.21875 264.640625 239.609375 259.125 238.734375 249.175781 C 247.667969 250.292969 259.980469 234.074219 249.988281 228.824219 Z M 211.078125 243.210938 C 210.792969 242.925781 210.488281 242.765625 210.183594 242.664062 C 210.082031 240.6875 209.960938 238.734375 209.859375 236.761719 C 217.144531 243.335938 224.410156 249.929688 231.734375 256.441406 C 232.589844 257.03125 233.363281 257.988281 234.21875 258.71875 C 234.320312 259.859375 234.441406 261.019531 234.5625 262.160156 C 226.363281 255.382812 219.320312 250.152344 211.078125 243.191406 Z M 211.078125 243.210938 " fill-opacity="1" fill-rule="nonzero"/></g></g></g><g mask="url(#a831abc6db)"><g transform="matrix(1, 0, 0, 1, 281, 258)"><g clip-path="url(#238c269880)"><g clip-path="url(#cc9730ca8f)"><path fill="#000000" d="M 556.851562 107.835938 C 557.097656 108.703125 557.46875 112.171875 556.230469 112.542969 C 555.859375 112.664062 555.242188 112.417969 555.363281 111.921875 C 555.613281 109.320312 555.242188 108.082031 553.878906 105.855469 C 552.886719 104.246094 551.527344 102.882812 550.410156 101.519531 C 549.296875 100.15625 548.554688 98.300781 548.304688 96.316406 C 547.933594 97.558594 547.6875 98.917969 547.441406 100.28125 C 546.695312 103.378906 546.078125 106.472656 545.335938 109.570312 C 544.46875 113.78125 544.34375 117.125 543.351562 122.078125 C 542.980469 123.6875 542.859375 125.421875 542.488281 126.90625 C 541.742188 129.878906 540.382812 131.863281 537.410156 132.976562 C 534.683594 133.96875 531.464844 133.71875 529.238281 131.863281 C 527.875 130.746094 526.761719 129.011719 526.511719 127.28125 C 526.265625 126.042969 526.636719 124.679688 527.628906 123.191406 C 530.597656 118.980469 538.027344 118.980469 540.753906 123.441406 C 541.125 121.832031 541.992188 118.363281 542.238281 116.628906 C 542.609375 114.277344 542.859375 112.664062 543.351562 110.3125 C 543.972656 107.339844 544.714844 104.367188 545.457031 101.394531 C 546.078125 99.289062 546.324219 97.183594 546.695312 95.078125 C 546.820312 94.089844 547.066406 92.109375 548.554688 92.109375 C 549.542969 92.109375 549.667969 93.59375 549.667969 94.335938 C 549.792969 95.945312 550.039062 97.433594 551.03125 98.671875 C 552.144531 100.15625 553.257812 101.519531 554.375 102.882812 C 555.363281 104.367188 556.355469 105.976562 556.851562 107.835938 Z M 242.203125 14.953125 C 239.972656 11.609375 235.886719 11.359375 233.410156 8.511719 C 231.800781 6.652344 230.933594 4.300781 229.695312 2.195312 C 229.199219 1.328125 227.839844 3.0625 227.839844 3.683594 C 227.714844 5.785156 228.707031 8.140625 229.078125 10.121094 C 229.199219 10.988281 229.324219 11.980469 229.449219 12.847656 C 229.820312 15.445312 230.316406 18.171875 230.6875 20.773438 C 230.8125 23.746094 231.304688 26.71875 231.675781 29.566406 C 231.925781 31.050781 232.296875 32.660156 232.421875 34.148438 C 232.421875 34.273438 232.421875 34.273438 232.421875 34.394531 C 230.8125 32.660156 227.21875 32.785156 225.238281 33.527344 C 222.761719 34.394531 220.78125 36.253906 220.039062 38.855469 C 219.542969 40.464844 219.789062 41.949219 220.410156 43.066406 C 221.277344 44.550781 223.007812 45.789062 224.621094 46.410156 C 227.46875 47.398438 230.5625 46.53125 232.667969 44.550781 C 233.78125 43.558594 234.648438 42.445312 235.144531 41.082031 C 235.640625 39.84375 235.269531 38.480469 235.144531 37.121094 C 235.019531 35.511719 234.527344 33.898438 234.277344 32.289062 C 233.289062 26.222656 232.296875 20.152344 231.429688 14.085938 C 231.183594 11.730469 230.933594 8.386719 229.820312 6.28125 C 229.945312 6.652344 230.191406 6.902344 230.316406 7.273438 C 231.183594 8.882812 231.925781 9.75 233.660156 10.617188 C 237.25 12.597656 240.964844 14.207031 241.957031 18.542969 C 241.957031 18.789062 242.078125 18.914062 242.328125 18.914062 C 242.449219 19.039062 242.699219 19.039062 242.820312 18.914062 C 243.070312 18.789062 243.316406 18.542969 243.195312 18.296875 C 243.316406 17.058594 242.945312 15.941406 242.203125 14.953125 Z M 372.46875 83.6875 C 371.355469 82.074219 370.984375 83.6875 370.984375 84.675781 C 370.738281 87.523438 370.738281 90.496094 370.488281 93.347656 C 370.117188 98.175781 369.746094 103.007812 369.125 107.710938 C 368.878906 110.066406 368.382812 112.664062 368.136719 114.648438 C 367.394531 114.152344 366.15625 113.65625 365.535156 113.410156 C 362.933594 112.664062 359.714844 112.914062 357.363281 114.152344 C 354.640625 115.636719 353.277344 119.601562 354.761719 122.324219 C 355.878906 124.554688 357.117188 125.296875 359.34375 126.164062 C 361.449219 127.03125 364.421875 126.289062 366.402344 125.421875 C 367.886719 124.679688 368.632812 123.6875 369.125 122.574219 C 369.871094 121.335938 369.871094 119.726562 370.117188 118.609375 C 370.984375 113.160156 370.984375 108.578125 371.601562 103.5 C 372.097656 99.910156 372.347656 96.195312 372.46875 92.601562 C 372.59375 90.867188 372.59375 89.136719 372.71875 87.402344 C 372.71875 86.164062 373.214844 84.675781 372.46875 83.6875 Z M 392.777344 502.285156 C 392.53125 499.1875 389.683594 496.464844 386.585938 495.96875 C 385.96875 495.84375 385.222656 495.84375 384.359375 495.84375 C 379.15625 496.214844 377.671875 500.179688 376.433594 504.515625 C 375.9375 506.246094 375.566406 507.859375 375.070312 509.589844 C 373.707031 514.792969 372.347656 519.871094 370.859375 525.070312 C 370.117188 527.550781 369.375 530.148438 368.632812 532.625 C 368.136719 533.988281 367.394531 535.847656 368.382812 537.210938 C 368.382812 537.332031 368.507812 537.332031 368.632812 537.332031 C 369.871094 537.582031 370.613281 533.492188 370.738281 532.625 C 371.605469 529.40625 372.347656 526.3125 373.335938 523.089844 C 374.328125 519.996094 374.945312 516.773438 375.9375 513.679688 C 376.679688 511.449219 377.175781 509.097656 378.042969 506.867188 C 380.023438 509.589844 384.480469 510.335938 387.578125 509.714844 C 391.292969 509.097656 393.148438 506 392.777344 502.285156 Z M 419.523438 285.800781 C 417.914062 289.394531 414.324219 291.621094 410.363281 290.757812 C 407.265625 290.136719 405.039062 287.535156 404.914062 284.191406 C 404.789062 280.105469 409.742188 276.515625 412.960938 276.761719 C 414.324219 276.886719 416.304688 277.132812 417.667969 278.125 C 416.925781 275.894531 416.179688 273.664062 415.5625 271.4375 C 415.066406 269.703125 414.695312 267.96875 414.078125 266.234375 C 413.703125 264.996094 413.085938 263.882812 412.714844 262.644531 C 412.464844 261.898438 412.09375 261.15625 411.972656 260.414062 C 411.601562 259.300781 411.226562 258.308594 410.734375 257.195312 C 410.363281 256.078125 409.742188 254.964844 409.246094 253.851562 C 408.257812 254.34375 407.140625 254.71875 406.523438 254.964844 C 404.171875 255.832031 401.941406 257.070312 399.589844 258.0625 C 395.253906 259.917969 390.671875 261.898438 386.710938 264.625 C 387.824219 267.722656 388.816406 271.066406 390.175781 274.035156 C 390.921875 275.648438 391.292969 277.628906 392.035156 279.238281 C 393.273438 282.210938 394.015625 285.308594 395.128906 288.277344 C 396.367188 291.375 397.234375 294.59375 395.253906 297.445312 C 392.902344 300.664062 388.320312 302.148438 384.359375 301.40625 C 381.632812 300.789062 380.519531 299.175781 380.269531 296.453125 C 380.023438 293.851562 381.261719 291.746094 382.996094 290.011719 C 384.976562 288.03125 387.824219 287.660156 390.550781 288.03125 C 391.292969 288.15625 392.160156 288.277344 393.027344 288.527344 C 392.53125 286.421875 392.160156 284.316406 391.414062 282.335938 C 390.550781 279.609375 389.1875 277.132812 388.320312 274.53125 C 387.328125 271.683594 386.089844 268.960938 385.347656 266.109375 C 384.605469 263.261719 383.121094 260.539062 382.5 257.6875 C 382.128906 255.957031 387.453125 254.59375 388.445312 254.222656 C 392.652344 252.488281 396.367188 250.507812 400.332031 248.277344 C 401.199219 247.78125 407.511719 243.941406 408.378906 245.550781 C 409.742188 248.523438 410.734375 251.496094 411.722656 254.59375 C 412.589844 257.070312 413.582031 259.546875 414.449219 262.023438 C 415.316406 264.375 416.058594 266.855469 416.675781 269.332031 C 417.542969 272.054688 418.535156 274.78125 419.152344 277.628906 C 420.269531 280.105469 420.640625 283.078125 419.523438 285.800781 Z M 408.75 252.363281 C 408.378906 251.621094 408.132812 250.878906 407.886719 250.132812 C 406.152344 251.125 404.171875 251.867188 402.4375 252.734375 C 400.578125 253.726562 398.597656 254.46875 396.742188 255.460938 C 394.882812 256.449219 393.027344 257.316406 391.167969 258.183594 C 389.433594 259.050781 387.699219 259.792969 385.96875 260.414062 C 386.089844 261.15625 386.339844 261.777344 386.585938 262.519531 C 386.585938 262.394531 388.9375 261.28125 389.0625 261.15625 C 390.425781 260.414062 391.910156 259.792969 393.273438 259.175781 C 394.511719 258.554688 395.625 258.0625 396.863281 257.441406 C 397.855469 256.945312 398.96875 256.699219 399.960938 256.203125 C 401.074219 255.707031 402.1875 255.089844 403.304688 254.59375 C 404.417969 254.097656 405.53125 253.601562 406.769531 253.230469 C 406.894531 253.230469 407.886719 252.734375 408.75 252.363281 Z M 309.070312 351.6875 C 308.328125 351.191406 307.460938 350.945312 306.46875 350.945312 C 305.109375 350.820312 303.746094 350.945312 302.507812 351.6875 C 302.136719 351.9375 301.765625 352.183594 301.515625 352.554688 C 300.648438 353.667969 300.773438 355.28125 302.011719 356.148438 C 304.117188 357.757812 306.71875 354.785156 305.726562 352.679688 C 306.347656 352.679688 306.964844 352.925781 307.335938 353.050781 C 309.195312 353.792969 310.183594 355.527344 310.554688 357.386719 C 311.050781 360.109375 310.183594 362.710938 308.203125 364.691406 C 306.222656 366.671875 303.003906 367.292969 300.277344 367.167969 C 298.792969 367.046875 297.679688 366.425781 296.316406 365.929688 C 295.324219 365.558594 294.457031 364.816406 293.46875 364.445312 C 292.972656 364.320312 291.734375 364.816406 292.476562 365.433594 C 293.964844 366.550781 295.574219 367.789062 297.429688 368.40625 C 299.535156 369.148438 302.011719 368.902344 304.117188 368.65625 C 308.203125 368.285156 310.804688 365.433594 312.289062 361.84375 C 313.777344 358.375 312.414062 353.546875 309.070312 351.6875 Z M 317.117188 363.082031 C 316.746094 362.585938 316.375 361.96875 315.632812 361.84375 C 314.269531 361.71875 312.910156 363.328125 313.527344 364.691406 C 314.148438 366.054688 316.375 366.179688 316.996094 364.816406 C 317.367188 364.195312 317.492188 363.703125 317.117188 363.082031 Z M 311.917969 367.539062 C 311.300781 367.417969 310.554688 367.664062 310.0625 368.285156 C 309.8125 368.777344 309.6875 369.152344 309.6875 369.644531 C 309.6875 370.265625 310.0625 370.882812 310.679688 371.132812 C 311.175781 371.378906 311.792969 371.253906 312.289062 371.007812 C 314.023438 370.511719 313.652344 367.910156 311.917969 367.539062 Z M 78.875 146.601562 C 78.128906 148.582031 77.261719 151.058594 75.777344 152.542969 C 74.414062 153.90625 72.683594 154.898438 70.949219 155.765625 C 70.699219 155.886719 70.453125 155.765625 70.207031 155.640625 C 70.207031 155.640625 70.082031 155.515625 70.082031 155.515625 C 69.957031 155.269531 69.957031 155.019531 70.328125 154.773438 C 72.804688 153.164062 74.785156 151.800781 75.902344 148.828125 C 76.273438 147.714844 76.769531 146.476562 77.015625 145.238281 C 77.261719 143.253906 76.890625 141.769531 76.148438 140.035156 C 75.160156 137.683594 72.558594 135.453125 69.957031 135.453125 C 68.84375 135.453125 66.367188 135.824219 65.625 136.816406 C 65.253906 137.3125 65.128906 137.804688 65.128906 138.300781 C 65.128906 138.300781 65.128906 138.300781 65.253906 138.300781 C 66.117188 138.179688 66.984375 138.300781 67.730469 139.046875 C 68.347656 139.789062 68.71875 141.027344 68.347656 141.894531 C 67.355469 144 64.136719 144 63.148438 142.015625 C 62.898438 141.523438 62.527344 140.40625 62.652344 139.539062 C 62.898438 137.0625 64.136719 135.949219 65.746094 134.835938 C 68.96875 132.480469 73.671875 133.347656 76.398438 136.195312 C 78.875 139.167969 80.234375 142.761719 78.875 146.601562 Z M 78.007812 143.253906 C 78.007812 144.121094 77.882812 144.867188 77.757812 145.609375 C 78.007812 144.742188 78.007812 144 78.007812 143.253906 Z M 80.359375 133.101562 C 79.492188 132.355469 77.511719 132.480469 77.140625 133.71875 C 76.519531 135.453125 78.996094 137.0625 80.484375 136.195312 C 81.96875 135.453125 81.351562 133.96875 80.359375 133.101562 Z M 83.082031 138.921875 C 82.214844 138.671875 81.351562 138.921875 80.855469 139.910156 C 79.738281 142.265625 84.074219 144.121094 84.691406 141.273438 C 85.066406 140.035156 84.074219 139.167969 83.082031 138.921875 Z M 30.953125 309.582031 C 30.828125 308.589844 30.582031 307.722656 30.085938 306.855469 C 28.597656 304.132812 26.121094 302.027344 25.132812 298.929688 C 24.140625 296.082031 24.390625 292.863281 25.132812 290.011719 C 25.503906 288.527344 26.371094 287.039062 26.492188 285.554688 C 26.617188 284.5625 26.246094 283.324219 25.132812 284.316406 C 24.390625 285.058594 24.140625 287.289062 23.769531 288.277344 C 23.273438 289.890625 22.777344 291.375 22.40625 292.984375 C 21.417969 296.699219 20.300781 300.414062 19.1875 304.132812 C 18.074219 307.722656 17.207031 311.808594 15.472656 315.152344 C 13.617188 311.191406 7.671875 309.953125 3.957031 312.925781 C 0.613281 315.648438 1.355469 319.734375 4.082031 322.460938 C 7.054688 325.433594 11.261719 325.929688 14.359375 322.707031 C 16.835938 320.109375 17.332031 316.269531 18.199219 312.925781 C 19.558594 307.722656 21.292969 302.519531 22.902344 297.445312 C 23.644531 300.789062 25.253906 302.769531 27.359375 305.371094 C 29.21875 307.847656 30.085938 309.953125 29.09375 312.925781 C 28.351562 315.402344 29.960938 315.03125 30.582031 313.046875 C 30.953125 312.058594 31.074219 310.820312 30.953125 309.582031 Z M 33.921875 298.804688 C 32.933594 296.824219 31.199219 295.460938 29.835938 293.726562 C 28.351562 291.621094 27.855469 289.023438 28.105469 286.546875 C 28.226562 285.800781 26.988281 285.429688 26.742188 286.296875 C 25.875 289.269531 26.988281 292.738281 28.847656 294.964844 C 30.207031 296.453125 31.941406 298.1875 32.683594 300.042969 C 33.675781 302.398438 32.4375 304.625 30.953125 306.359375 C 30.582031 306.730469 31.199219 307.351562 31.695312 306.980469 C 31.820312 306.980469 31.820312 306.980469 31.941406 306.855469 C 31.941406 306.855469 32.066406 306.730469 32.066406 306.730469 C 32.066406 306.730469 32.191406 306.609375 32.191406 306.609375 C 33.179688 305.492188 33.921875 304.253906 34.417969 302.769531 C 35.039062 301.40625 34.542969 300.292969 33.921875 298.804688 Z M 580.128906 302.398438 C 579.757812 301.902344 579.386719 301.53125 579.015625 301.160156 C 576.664062 299.300781 573.445312 299.175781 571.089844 297.195312 C 568.367188 294.84375 566.757812 291.621094 566.015625 288.15625 C 565.640625 286.171875 565.640625 283.945312 564.777344 282.085938 C 564.527344 281.589844 564.03125 282.085938 563.910156 282.335938 C 563.539062 282.828125 563.660156 283.078125 563.660156 283.695312 C 563.910156 285.679688 564.28125 287.535156 564.652344 289.519531 C 564.777344 290.507812 564.898438 291.621094 565.023438 292.613281 C 565.394531 295.460938 566.136719 298.433594 566.757812 301.28125 C 567.253906 303.761719 567.625 306.359375 567.996094 308.835938 C 568.242188 310.941406 568.613281 314.285156 568.863281 315.152344 C 564.898438 312.800781 558.707031 313.914062 557.097656 318.621094 C 555.363281 323.824219 560.070312 326.546875 564.527344 327.042969 C 567.128906 327.289062 569.480469 325.558594 570.59375 323.328125 C 572.824219 318.992188 570.472656 314.164062 569.851562 309.703125 C 569.480469 307.105469 569.234375 304.625 568.738281 302.027344 C 568.367188 299.921875 567.871094 297.816406 567.5 295.710938 C 568.613281 297.320312 570.222656 298.683594 571.832031 299.550781 C 573.566406 300.292969 575.425781 301.035156 577.035156 302.027344 C 578.398438 302.894531 579.511719 304.132812 580.007812 305.617188 C 580.253906 306.238281 580.625 307.351562 580.378906 308.09375 C 580.253906 308.589844 580.625 308.835938 581.121094 308.714844 C 581.738281 308.589844 581.863281 307.96875 581.863281 307.476562 C 581.738281 305.492188 581.121094 303.761719 580.128906 302.398438 Z M 580.253906 294.222656 C 579.511719 292.863281 578.273438 291.871094 577.035156 291.128906 C 574.804688 290.011719 571.957031 289.144531 570.101562 287.289062 C 569.480469 286.667969 568.738281 285.925781 568.242188 285.183594 C 567.871094 284.6875 567.375 283.078125 566.757812 283.078125 C 566.386719 283.078125 565.890625 283.449219 566.015625 283.820312 C 566.632812 286.792969 569.109375 289.519531 571.832031 290.632812 C 573.691406 291.375 576.042969 292.117188 577.53125 293.480469 C 579.386719 295.089844 579.386719 297.691406 578.769531 299.921875 C 578.644531 300.292969 579.015625 300.414062 579.386719 300.414062 C 580.007812 300.414062 580.128906 299.796875 580.253906 299.300781 C 580.75 297.691406 581.121094 295.832031 580.253906 294.222656 Z M 203.941406 428.84375 C 203.816406 426.988281 199.855469 427.234375 198.367188 426.863281 C 195.890625 426.367188 193.414062 425.625 191.0625 424.757812 C 188.710938 424.015625 186.355469 423.519531 184.003906 423.023438 C 182.023438 422.652344 180.164062 421.414062 178.183594 421.414062 C 175.707031 421.414062 175.335938 423.765625 174.59375 425.746094 C 174.097656 427.109375 173.601562 428.347656 172.984375 429.585938 C 171.746094 432.4375 171.125 435.40625 170.011719 438.378906 C 169.515625 439.867188 169.019531 441.351562 168.523438 442.839844 C 168.152344 443.828125 167.78125 444.945312 167.410156 445.933594 C 166.914062 447.050781 166.421875 448.289062 166.046875 449.402344 C 165.800781 450.144531 165.429688 450.886719 165.304688 451.507812 C 165.183594 451.261719 165.058594 451.136719 164.933594 450.886719 C 164.4375 450.144531 163.820312 449.402344 162.953125 449.03125 C 161.09375 447.917969 158.496094 447.296875 156.265625 447.792969 C 152.425781 448.660156 148.960938 452.128906 150.570312 456.335938 C 151.808594 459.308594 155.152344 461.785156 158.496094 461.414062 C 162.457031 460.921875 164.933594 457.699219 166.421875 454.234375 C 168.152344 450.269531 169.390625 445.933594 170.628906 441.722656 C 171 440.484375 171.375 439.125 171.746094 437.886719 C 172.238281 436.523438 172.734375 435.035156 173.355469 433.675781 C 173.972656 432.3125 174.46875 430.824219 175.089844 429.464844 C 175.460938 428.71875 176.203125 426.121094 176.945312 425.871094 C 177.9375 425.625 180.164062 426.121094 181.03125 426.492188 C 184.375 428.101562 187.472656 427.976562 191.0625 429.089844 C 192.796875 429.585938 194.40625 430.332031 196.140625 430.703125 C 197.625 431.074219 199.359375 431.320312 200.84375 431.816406 C 200.597656 432.683594 200.472656 433.550781 200.226562 434.417969 C 199.855469 435.65625 199.480469 436.894531 198.988281 438.132812 C 198.492188 439.496094 197.75 440.609375 197.378906 441.972656 C 197.003906 443.335938 196.511719 444.695312 195.890625 445.933594 C 194.035156 449.898438 192.917969 453.859375 191.433594 458.320312 C 190.566406 456.460938 189.082031 455.222656 188.460938 454.851562 C 186.851562 453.984375 184.871094 453.488281 183.136719 453.613281 C 179.050781 453.859375 175.335938 458.441406 177.070312 462.40625 C 178.804688 466.617188 183.507812 467.730469 187.59375 466.492188 C 189.203125 465.996094 190.441406 465.007812 191.308594 463.519531 C 192.917969 460.921875 194.035156 458.195312 194.902344 455.222656 C 195.519531 452.992188 196.261719 450.765625 197.003906 448.660156 C 197.5 447.542969 197.996094 446.304688 198.367188 445.191406 C 198.863281 443.953125 199.359375 442.839844 199.730469 441.601562 C 200.472656 439.992188 200.96875 438.378906 201.464844 436.894531 C 201.957031 435.40625 202.453125 433.921875 203.074219 432.4375 C 203.074219 431.570312 203.941406 430.082031 203.941406 428.84375 Z M 190.195312 272.179688 C 188.214844 272.675781 186.109375 272.550781 184.25 271.683594 C 182.640625 270.941406 180.785156 269.082031 180.535156 267.226562 C 180.289062 266.109375 180.414062 264.871094 180.785156 264.003906 C 181.15625 263.261719 181.652344 262.519531 182.144531 261.777344 C 183.261719 260.414062 184.996094 259.792969 186.726562 259.421875 C 187.964844 259.175781 191.308594 258.804688 193.289062 260.660156 C 193.042969 258.925781 192.671875 257.316406 192.425781 255.582031 C 191.433594 246.296875 188.957031 237.378906 187.964844 228.089844 C 187.964844 227.59375 188.710938 227.472656 189.082031 227.71875 C 189.203125 227.71875 189.203125 227.71875 189.328125 227.84375 C 190.070312 228.710938 190.441406 230.9375 190.566406 232.054688 C 190.8125 234.035156 191.1875 235.769531 191.558594 237.625 C 191.804688 239.234375 192.175781 240.722656 192.425781 242.332031 C 193.167969 246.171875 193.785156 250.011719 194.527344 253.851562 C 194.902344 255.707031 195.148438 257.6875 195.519531 259.546875 C 195.765625 261.28125 196.261719 263.136719 196.140625 264.871094 C 196.015625 268.339844 193.414062 271.3125 190.195312 272.179688 Z M 194.035156 265.617188 C 193.910156 263.511719 193.042969 262.148438 191.0625 261.527344 C 188.832031 260.785156 186.234375 261.527344 184.375 263.015625 C 182.640625 264.375 181.28125 266.976562 183.261719 268.835938 C 184.003906 269.578125 184.996094 270.320312 185.984375 270.570312 C 186.976562 270.941406 188.089844 270.570312 189.082031 270.320312 C 190.070312 270.074219 190.9375 269.578125 191.804688 269.082031 C 192.546875 268.585938 193.167969 267.96875 193.664062 267.347656 C 193.910156 266.855469 194.035156 266.359375 194.035156 265.617188 Z M 194.035156 265.617188 " fill-opacity="1" fill-rule="nonzero"/></g></g></g></g></svg>